<?xml version="1.0" encoding="UTF-8" standalone="no"?>
<!-- Created with Inkscape (http://www.inkscape.org/) -->

<svg
   xmlns:dc="http://purl.org/dc/elements/1.1/"
   xmlns:cc="http://creativecommons.org/ns#"
   xmlns:rdf="http://www.w3.org/1999/02/22-rdf-syntax-ns#"
   xmlns:svg="http://www.w3.org/2000/svg"
   xmlns="http://www.w3.org/2000/svg"
   xmlns:sodipodi="http://sodipodi.sourceforge.net/DTD/sodipodi-0.dtd"
   xmlns:inkscape="http://www.inkscape.org/namespaces/inkscape"
   width="744.09448819"
   height="1052.3622047"
   id="svg2"
   version="1.1"
   inkscape:version="0.48.4 r9939"
   sodipodi:docname="prelogo.svg">
  <defs
     id="defs4">
    <inkscape:path-effect
       effect="sketch"
       id="path-effect4380"
       is_visible="true"
       nbiter_approxstrokes="5"
       strokelength="100"
       strokelength_rdm="0.3;1"
       strokeoverlap="0.3"
       strokeoverlap_rdm="0.3;1"
       ends_tolerance="0.1;1"
       parallel_offset="5;1"
       tremble_size="5;1"
       tremble_frequency="1"
       nbtangents="5"
       tgt_places_rdmness="1;1"
       tgtscale="10"
       tgtlength="100"
       tgtlength_rdm="0.3;1" />
    <inkscape:path-effect
       effect="sketch"
       id="path-effect4291"
       is_visible="true"
       nbiter_approxstrokes="5"
       strokelength="100"
       strokelength_rdm="0.3;545701727"
       strokeoverlap="0.3"
       strokeoverlap_rdm="0.3;1"
       ends_tolerance="0.1;1"
       parallel_offset="5;1"
       tremble_size="5;1"
       tremble_frequency="1"
       nbtangents="5"
       tgt_places_rdmness="1;1"
       tgtscale="10"
       tgtlength="100"
       tgtlength_rdm="0.3;1" />
    <inkscape:path-effect
       effect="ruler"
       id="path-effect4289"
       is_visible="true"
       unit="px"
       mark_distance="20"
       mark_length="14"
       minor_mark_length="7"
       major_mark_steps="5"
       shift="0"
       offset="0"
       mark_dir="left"
       border_marks="both" />
    <inkscape:path-effect
       effect="rough_hatches"
       id="path-effect4113"
       is_visible="true"
       direction="170.91028,410.87509 , 53.369764,0"
       dist_rdm="75;1"
       growth="0"
       do_bend="true"
       bender="170.91028,415.87509 , 5,0"
       bottom_edge_variation="19.964095;1"
       top_edge_variation="19.964095;1"
       bottom_tgt_variation="0;1"
       top_tgt_variation="0;1"
       scale_bf="1"
       scale_bb="1"
       scale_tf="1"
       scale_tb="1"
       top_smth_variation="0;1"
       bottom_smth_variation="0;1"
       fat_output="true"
       stroke_width_top="1"
       stroke_width_bottom="1"
       front_thickness="1"
       back_thickness="0.25" />
    <inkscape:path-effect
       effect="ruler"
       id="path-effect4111"
       is_visible="true"
       unit="px"
       mark_distance="20"
       mark_length="14"
       minor_mark_length="7"
       major_mark_steps="5"
       shift="0"
       offset="0"
       mark_dir="left"
       border_marks="both" />
    <inkscape:path-effect
       effect="sketch"
       id="path-effect4109"
       is_visible="true"
       nbiter_approxstrokes="5"
       strokelength="100"
       strokelength_rdm="0.3;1"
       strokeoverlap="0.3"
       strokeoverlap_rdm="0.3;1"
       ends_tolerance="0.1;1"
       parallel_offset="5;1"
       tremble_size="5;1"
       tremble_frequency="1"
       nbtangents="5"
       tgt_places_rdmness="1;1"
       tgtscale="10"
       tgtlength="100"
       tgtlength_rdm="0.3;1" />
    <inkscape:path-effect
       effect="rough_hatches"
       id="path-effect4107"
       is_visible="true"
       direction="170.71577,410.96607 , 46.467018,0"
       dist_rdm="75;1"
       growth="0"
       do_bend="true"
       bender="170.71577,415.96607 , 5,0"
       bottom_edge_variation="18.586807;1"
       top_edge_variation="18.586807;1"
       bottom_tgt_variation="0;1"
       top_tgt_variation="0;1"
       scale_bf="1"
       scale_bb="1"
       scale_tf="1"
       scale_tb="1"
       top_smth_variation="0;1"
       bottom_smth_variation="0;1"
       fat_output="true"
       stroke_width_top="1"
       stroke_width_bottom="1"
       front_thickness="1"
       back_thickness="0.25" />
    <inkscape:path-effect
       effect="vonkoch"
       id="path-effect4105"
       is_visible="true"
       ref_path="m 77.781738,415.96607 185.868072,0"
       generator="m 77.781738,508.9001 61.956022,0 m 61.95603,0 61.95602,0"
       similar_only="false"
       nbgenerations="1"
       drawall="true"
       maxComplexity="1000" />
    <inkscape:path-effect
       effect="curvestitching"
       id="path-effect4103"
       is_visible="true"
       count="5"
       startpoint_edge_variation="0;1"
       startpoint_spacing_variation="0;1"
       endpoint_edge_variation="0;1"
       endpoint_spacing_variation="0;1"
       strokepath="m 77.781738,415.96606 185.868072,0"
       prop_scale="1"
       scale_y_rel="false" />
    <inkscape:path-effect
       effect="spiro"
       id="path-effect4101"
       is_visible="true" />
    <inkscape:path-effect
       effect="sketch"
       id="path-effect4099"
       is_visible="true"
       nbiter_approxstrokes="5"
       strokelength="100"
       strokelength_rdm="0.3;1"
       strokeoverlap="0.3"
       strokeoverlap_rdm="0.3;1"
       ends_tolerance="0.1;1"
       parallel_offset="5;1"
       tremble_size="5;1"
       tremble_frequency="1"
       nbtangents="5"
       tgt_places_rdmness="1;1"
       tgtscale="10"
       tgtlength="100"
       tgtlength_rdm="0.3;1" />
    <inkscape:path-effect
       effect="ruler"
       id="path-effect4097"
       is_visible="true"
       unit="px"
       mark_distance="20"
       mark_length="14"
       minor_mark_length="7"
       major_mark_steps="5"
       shift="0"
       offset="0"
       mark_dir="left"
       border_marks="both" />
    <inkscape:path-effect
       effect="skeletal"
       id="path-effect4095"
       is_visible="true"
       pattern="M 0,0 1,0"
       copytype="single_stretched"
       prop_scale="1"
       scale_y_rel="false"
       spacing="0"
       normal_offset="0"
       tang_offset="0"
       prop_units="false"
       vertical_pattern="false"
       fuse_tolerance="0" />
    <inkscape:path-effect
       effect="interpolate"
       id="path-effect4093"
       is_visible="true"
       trajectory="M 0,0 0,0"
       equidistant_spacing="true"
       steps="5" />
    <inkscape:path-effect
       effect="rough_hatches"
       id="path-effect4091"
       is_visible="true"
       direction="170.71577,410.96607 , 46.467018,0"
       dist_rdm="75;1"
       growth="0"
       do_bend="true"
       bender="170.71577,415.96607 , 5,0"
       bottom_edge_variation="18.586807;1"
       top_edge_variation="18.586807;1"
       bottom_tgt_variation="0;1"
       top_tgt_variation="0;1"
       scale_bf="1"
       scale_bb="1"
       scale_tf="1"
       scale_tb="1"
       top_smth_variation="0;1"
       bottom_smth_variation="0;1"
       fat_output="true"
       stroke_width_top="1"
       stroke_width_bottom="1"
       front_thickness="1"
       back_thickness="0.25" />
    <inkscape:path-effect
       effect="envelope"
       id="path-effect4089"
       is_visible="true"
       yy="true"
       xx="true"
       bendpath1="m 77.781738,323.03203 185.868072,0"
       bendpath2="m 263.64981,323.03203 0,185.86807"
       bendpath3="m 77.781738,508.9001 185.868072,0"
       bendpath4="m 77.781738,323.03203 0,185.86807" />
    <inkscape:path-effect
       effect="bend_path"
       id="path-effect4087"
       is_visible="true"
       bendpath="m 77.781738,415.96607 185.868072,0"
       prop_scale="1"
       scale_y_rel="false"
       vertical="false" />
    <inkscape:path-effect
       effect="construct_grid"
       id="path-effect4085"
       is_visible="true"
       nr_x="5"
       nr_y="5" />
    <inkscape:path-effect
       effect="knot"
       id="path-effect4083"
       is_visible="true"
       interruption_width="3"
       prop_to_stroke_width="true"
       add_stroke_width="true"
       add_other_stroke_width="true"
       switcher_size="15"
       crossing_points_vector="" />
    <inkscape:path-effect
       effect="ruler"
       id="path-effect4081"
       is_visible="true"
       unit="px"
       mark_distance="20"
       mark_length="14"
       minor_mark_length="7"
       major_mark_steps="5"
       shift="0"
       offset="0"
       mark_dir="left"
       border_marks="both" />
    <inkscape:path-effect
       effect="spiro"
       id="path-effect4079"
       is_visible="true" />
    <inkscape:path-effect
       effect="sketch"
       id="path-effect4077"
       is_visible="true"
       nbiter_approxstrokes="5"
       strokelength="100"
       strokelength_rdm="0.3;1"
       strokeoverlap="0.3"
       strokeoverlap_rdm="0.3;1"
       ends_tolerance="0.1;1"
       parallel_offset="5;1"
       tremble_size="5;1"
       tremble_frequency="1"
       nbtangents="5"
       tgt_places_rdmness="1;1"
       tgtscale="10"
       tgtlength="100"
       tgtlength_rdm="0.3;1" />
    <inkscape:path-effect
       effect="gears"
       id="path-effect4075"
       is_visible="true"
       teeth="10"
       phi="5" />
    <filter
       inkscape:collect="always"
       id="filter3908">
      <feGaussianBlur
         inkscape:collect="always"
         stdDeviation="2.13552"
         id="feGaussianBlur3910" />
    </filter>
    <filter
       color-interpolation-filters="sRGB"
       inkscape:collect="always"
       id="filter3857-5-9">
      <feGaussianBlur
         inkscape:collect="always"
         stdDeviation="6.5053825"
         id="feGaussianBlur3859-8-8" />
    </filter>
    <mask
       maskUnits="userSpaceOnUse"
       id="mask4219">
      <path
         inkscape:connector-curvature="0"
         style="fill:#ffffff;fill-opacity:1;stroke:none;filter:url(#filter3857-5-9)"
         d="m 176.50547,443.07647 c 0,51.32606 -41.60798,92.93404 -92.934043,92.93404 -51.32605,0 -92.9340301,-41.60798 -92.9340301,-92.93404 0,-51.32606 41.6079801,-92.93404 92.9340301,-92.93404 51.326063,0 92.934043,41.60798 92.934043,92.93404 z"
         id="path4221"
         transform="matrix(0.76639472,0,0,0.76639472,330.92094,-24.620642)" />
    </mask>
    <filter
       inkscape:collect="always"
       id="filter4373">
      <feGaussianBlur
         inkscape:collect="always"
         stdDeviation="5.041407"
         id="feGaussianBlur4375" />
    </filter>
  </defs>
  <sodipodi:namedview
     id="base"
     pagecolor="#ffffff"
     bordercolor="#666666"
     borderopacity="1.0"
     inkscape:pageopacity="0.0"
     inkscape:pageshadow="2"
     inkscape:zoom="1.979899"
     inkscape:cx="401.50884"
     inkscape:cy="726.18072"
     inkscape:document-units="px"
     inkscape:current-layer="layer1"
     showgrid="false"
     inkscape:window-width="1366"
     inkscape:window-height="702"
     inkscape:window-x="0"
     inkscape:window-y="27"
     inkscape:window-maximized="1" />
  <metadata
     id="metadata7">
    <rdf:RDF>
      <cc:Work
         rdf:about="">
        <dc:format>image/svg+xml</dc:format>
        <dc:type
           rdf:resource="http://purl.org/dc/dcmitype/StillImage" />
        <dc:title></dc:title>
      </cc:Work>
    </rdf:RDF>
  </metadata>
  <g
     inkscape:label="Layer 1"
     inkscape:groupmode="layer"
     id="layer1">
    <path
       sodipodi:type="arc"
       style="fill:#ffffff;fill-opacity:0.70588237;stroke:#9e2e2e;stroke-width:1;stroke-miterlimit:4;stroke-opacity:1;stroke-dasharray:none;stroke-dashoffset:0"
       id="path4382"
       sodipodi:cx="423.00137"
       sodipodi:cy="344.49777"
       sodipodi:rx="67.427681"
       sodipodi:ry="67.427681"
       d="m 490.42905,344.49777 a 67.427681,67.427681 0 1 1 -134.85536,0 67.427681,67.427681 0 1 1 134.85536,0 z"
       transform="translate(-28.032623,-29.560272)" />
    <path
       style="fill:#2d65a0;fill-opacity:1;stroke:#2e999e;stroke-width:4.26020622;stroke-miterlimit:4;stroke-opacity:1;filter:url(#filter4373)"
       d="m 391.49968,243.9046 c -9.2073,0.46022 -18.2221,2.84063 -26.60085,6.73114 -8.37875,3.89052 -16.12522,9.29385 -22.83718,15.82813 -6.05564,5.89533 -11.27017,12.71203 -15.35356,20.17175 m 9.7114,-26.21041 c -12.53861,13.61293 -19.59525,31.96513 -18.82565,52.24946 0.19537,5.14941 0.88763,10.19792 2.02722,15.09773 m -7.86183,-9.63228 c -0.009,0.17913 -0.0176,0.35839 -0.0253,0.53778 -0.46246,10.74407 1.64124,20.94885 5.69849,30.13939 4.05725,9.19053 10.07454,17.36777 17.50299,24.05812 2.88666,2.59985 5.98665,4.97511 9.26822,7.0976 m -6.68299,-8.48034 c 1.14806,1.26819 2.32701,2.49929 3.53567,3.69198 15.11885,14.91901 34.87297,23.81344 56.95593,24.09568 9.74147,0.1245 19.13319,-1.42894 27.97276,-4.30404 m -34.69131,-4.02056 c 10.43206,-0.38385 20.79123,-2.81726 30.51733,-6.98313 9.7261,-4.16588 18.82523,-10.06168 26.80828,-17.35022 6.22863,-5.68674 11.77864,-12.22078 16.4287,-19.4444 m -13.10806,23.87537 c 6.46691,-6.82921 11.96422,-15.29831 16.03976,-24.96578 4.07553,-9.66747 6.72855,-20.53155 7.54322,-32.20123 0.42577,-6.09884 0.32946,-12.12648 -0.24818,-18.01394 m -5.58273,21.44099 c -0.006,-0.43936 -0.0143,-0.87969 -0.026,-1.32095 -0.28855,-10.93309 -2.40172,-21.40168 -6.06546,-30.97289 -3.66375,-9.57121 -8.87212,-18.24557 -15.2852,-25.59806 -2.3538,-2.69858 -4.86961,-5.21914 -7.5299,-7.54081 m 17.06063,7.42583 c -1.1807,-1.42 -2.41866,-2.78912 -3.71092,-4.10493 -7.05332,-7.1819 -15.72194,-12.77775 -25.53645,-16.37716 -9.8145,-3.59941 -20.774,-5.20441 -32.44103,-4.36403 -0.87885,0.0633 -1.75547,0.14005 -2.62963,0.23006 m 13.72869,2.08564 c -3.89534,-0.54802 -7.92245,-0.83295 -12.055,-0.83086 -10.81037,0.005 -21.31266,1.98067 -30.96835,5.59047 -9.65569,3.6098 -18.4687,8.85052 -25.93739,15.34729 -4.31986,3.75771 -8.19029,7.93528 -11.51499,12.45807 m 60.78711,-37.53149 c -18.47561,2.98127 -34.33365,11.54173 -45.82713,24.31027 -8.38179,9.31164 -14.43248,20.844 -17.41153,34.0688 m 6.11325,-21.13032 c -8.40326,13.15901 -13.74449,28.92617 -13.92906,45.80511 -0.12471,11.40532 2.12601,22.18114 6.43079,31.88157 m -10.78462,-24.37159 c 3.55895,17.09175 11.46707,31.73857 22.64495,42.5899 9.35215,9.07895 20.97366,15.49025 34.17312,18.36952 m -23.22703,-2.16573 c 12.96906,8.21159 28.0882,13.52908 44.42209,14.90899 13.53821,1.14372 26.38163,-0.5316 37.98245,-4.25237 m -15.8233,-0.1688 c 14.49489,-2.52508 27.64471,-9.48572 37.72253,-19.063 6.36597,-6.04979 11.51021,-13.14796 14.99782,-20.82615 m -5.85028,7.86431 c 9.71748,-13.55578 15.10797,-29.76668 14.40151,-47.17775 -0.40245,-9.91843 -2.75304,-19.37324 -6.70894,-28.10617 m 5.24527,20.8767 c -2.58588,-17.28972 -10.38268,-32.98623 -21.66121,-44.63565 -8.66879,-8.95387 -19.386,-15.52811 -31.29298,-18.59631 m 22.15516,9.30455 c -12.45518,-8.47388 -27.88452,-14.0419 -44.60012,-15.15617 -17.38031,-1.15857 -33.53272,2.67048 -46.53572,10.04692 m 36.34174,-13.4267 c -18.42896,2.40693 -34.84482,11.22161 -46.97143,24.58751 -10.0525,11.07982 -17.15971,25.27201 -19.99024,41.60117 m 9.07378,-32.88239 c -8.37058,12.73396 -12.90835,27.73085 -12.03049,43.60403 0.66096,11.95118 4.3315,23.12696 10.4234,32.97117 M 308.8596,332.6503 c 3.59979,15.45433 11.82536,29.42561 23.53327,40.14667 10.7659,9.85843 24.45941,16.97897 40.25602,19.97835 m -21.71144,-8.81408 c 12.21132,7.19872 26.33719,11.21824 41.32682,10.79276 17.68877,-0.50209 33.85449,-7.12826 46.82147,-18.17427 M 418.81571,389.911 c 11.88941,-4.50729 22.90823,-11.31223 32.06912,-19.91637 14.30949,-13.43984 24.09252,-31.24138 25.7917,-51.2935 m -8.9799,29.53389 c 3.8633,-9.47638 5.99523,-20.00773 6.0056,-31.29817 0.0212,-23.10797 -8.84525,-45.01692 -23.14319,-62.70819 -0.36988,-0.45767 -0.7434,-0.91253 -1.12049,-1.36454 m 9.86685,29.1496 c -3.97929,-7.68853 -9.01129,-14.63733 -14.8864,-20.62134 -14.13861,-14.40069 -33.17199,-23.20608 -54.00188,-23.27906 -3.82725,-0.0134 -7.58163,0.26793 -11.24456,0.82158 m 11.38243,-10.12094 c -10.29659,0.67146 -20.3223,3.37233 -29.56517,7.8457 -9.24287,4.47336 -17.70685,10.71603 -24.92072,18.45256 -7.0587,7.57011 -12.92163,16.56774 -17.15286,26.75572 m 16.83557,-17.91633 c -12.66406,13.92753 -20.34204,32.49392 -20.79976,53.12179 -0.10902,4.91336 0.19462,9.74148 0.87087,14.44778 m 1.88093,-12.39692 c 1e-5,0.37585 0.003,0.75259 0.008,1.13019 0.15419,10.6174 2.46718,20.90892 6.56987,30.3275 4.10269,9.41859 9.99347,17.96822 17.29074,25.13834 5.76687,5.66637 12.41178,10.47195 19.74808,14.16482 M 339.9477,377.16523 c 13.52357,14.23722 32.87605,22.57536 54.0044,22.1363 4.63467,-0.0963 9.16416,-0.6113 13.54561,-1.50612 m -17.57233,2.75938 c 0.98614,0.0561 1.97796,0.0911 2.97519,0.10465 10.95285,0.1493 21.5173,-2.28792 31.24974,-6.77241 9.73245,-4.48448 18.63419,-11.02124 26.2806,-19.13076 4.7422,-5.02942 9.00173,-10.66432 12.67971,-16.79516 m -19.12019,9.65877 c 0.54387,-0.55407 1.08114,-1.11447 1.6116,-1.68107 13.94572,-14.8959 23.16467,-34.10595 23.86373,-54.78869 0.38366,-11.35132 -1.83814,-21.96447 -6.18701,-31.40037 m 7.35308,36.32556 c -0.76413,-9.46506 -3.1767,-18.67341 -6.95903,-27.15525 -3.78232,-8.48183 -8.93253,-16.24093 -15.14836,-22.84485 -5.53886,-5.88468 -11.92363,-10.85323 -18.93396,-14.60059 m 26.224,2.76237 c -13.77621,-12.21762 -32.21703,-19.66213 -52.49883,-19.50768 -8.82625,0.0672 -17.33134,1.57046 -25.27924,4.30389 m 16.70143,-0.93569 c -9.72446,0.61998 -19.21298,3.18934 -28.05122,7.35813 -8.83825,4.1688 -17.02906,9.93798 -24.19362,16.9726 -8.74842,8.58976 -15.96615,19.06468 -20.99238,30.83824 m 12.94522,-29.65302 c -10.93578,13.30163 -17.26549,30.44463 -17.12115,49.26345 0.11138,14.52207 4.05963,28.24474 10.78801,40.14716 m -4.28621,-30.41531 c 3.68589,16.18466 11.46547,30.97794 22.30306,42.88155 9.34288,10.26187 20.94188,18.37245 34.0761,23.44594 m -31.35989,1.5705 c 12.1103,8.06238 26.84334,12.62496 42.93383,12.58295 17.11363,-0.0447 33.30082,-5.2822 46.94496,-14.03686 m -24.0527,-4.8907 c 12.56369,-4.372 24.22747,-11.50186 33.72413,-20.76915 7.41451,-7.23543 13.51358,-15.76763 17.71721,-25.27488 m -3.9027,24.5084 c 8.72362,-12.65859 13.03806,-27.83635 11.63649,-44.28783 -1.58755,-18.63458 -10.25256,-35.96533 -23.60257,-50.12802 m 26.16447,30.87447 c -3.33614,-12.46408 -10.05972,-23.7376 -19.05421,-32.82722 -12.94555,-13.08247 -30.63038,-21.6564 -49.6985,-22.76013 m 17.07063,-9.79357 c -9.79162,-4.22626 -20.46781,-6.41174 -31.51091,-6.00168 -13.53809,0.5027 -25.99019,4.84974 -36.49197,12.20421 m 46.43148,14.5203 c 7.66435,1.04379 15.20212,3.31199 22.29205,6.60615 7.08993,3.29417 13.73453,7.61313 19.6464,12.74236 10.81184,9.38053 19.16489,21.47559 23.42149,34.91206 m -13.37822,-27.47932 c 5.39456,9.58727 8.73903,21.22704 9.18653,34.0196 0.34494,9.86075 -1.0634,19.47112 -3.92341,28.36163 -2.86001,8.8905 -7.16888,17.06474 -12.59847,24.08469 -0.91362,1.18123 -1.85896,2.3298 -2.83441,3.44364 m 18.68406,-18.53474 c -3.43763,6.66449 -7.88168,12.71927 -13.13118,17.94489 -12.33031,12.27423 -29.10256,19.97461 -47.68303,20.26052 m 15.0757,-6.79583 c -5.96763,1.75111 -12.16127,2.70924 -18.49831,2.78692 -9.74556,0.11947 -18.91219,-1.84953 -27.23456,-5.43812 -8.32238,-3.58858 -15.79732,-8.79998 -22.13397,-15.19365 -0.98223,-0.99107 -1.93711,-2.01056 -2.86355,-3.05684 m 9.60509,10.61629 c -3.93378,-2.56237 -7.55036,-5.46153 -10.81332,-8.65251 -12.86904,-12.58512 -20.24252,-29.71293 -19.76238,-48.57727 0.0376,-1.47811 0.12286,-2.94492 0.25393,-4.39912 m -1.48617,20.81848 c -0.60241,-3.50941 -0.90295,-7.15104 -0.87697,-10.90024 0.0653,-9.43051 2.18799,-18.64154 5.97323,-27.16346 3.78524,-8.52192 9.23446,-16.35848 15.97111,-23.0794 5.85352,-5.83985 12.67898,-10.83796 20.23637,-14.71824 m -21.43392,12.50503 c 0.10063,-0.10153 0.20158,-0.20275 0.30284,-0.30365 12.55823,-12.51358 29.95144,-20.13931 49.29586,-19.8696 15.54447,0.21673 29.9877,5.50391 41.81505,14.32582 m -38.42387,-16.57679 c 16.18319,1.58685 30.70368,8.76038 42.02901,19.46766 11.20324,10.59186 19.25405,24.65443 22.77789,40.23992 m -7.3904,-24.78821 c 5.18683,9.61306 7.81861,20.6314 7.1136,32.32427 -1.14295,18.95646 -10.8311,36.08638 -26.09414,48.2924 -3.32144,2.65619 -6.90819,5.07923 -10.73178,7.23702 m 28.34731,-19.13654 c -2.77571,5.15535 -6.38951,9.86342 -10.68902,13.98654 -6.2478,5.99149 -13.9431,10.74893 -22.64229,13.84388 -8.69919,3.09496 -18.40267,4.53078 -28.68807,3.84093 -7.83491,-0.5255 -15.44131,-2.24985 -22.61918,-5.03066 m 30.20831,0.24198 c -1.74863,0.065 -3.51279,0.0738 -5.29044,0.024 -9.70894,-0.27181 -18.90273,-2.27333 -27.2632,-5.74168 -8.36047,-3.46835 -15.88605,-8.3998 -22.24536,-14.49432 -8.04075,-7.70596 -14.21428,-17.26867 -17.86152,-28.07636 m 20.21386,27.34892 c -9.25236,-11.47665 -14.78875,-26.76876 -14.61396,-43.93488 0.14282,-14.02603 4.08585,-27.45087 10.88954,-39.13039 m -17.22172,17.78545 c 2.51593,-13.04105 8.86724,-23.95485 17.769,-32.01844 11.02213,-9.98431 25.97069,-15.59609 42.50964,-15.16431 m -28.57036,12.85665 c 8.5918,-3.68605 18.1914,-5.71885 28.40853,-5.64953 17.82691,0.12096 34.45148,6.62896 47.65548,17.42603 m -32.14665,-24.52437 c 15.18033,2.03573 28.5552,8.98039 38.51221,19.09848 11.86646,12.05844 18.88743,28.63981 18.18337,46.73889 m -0.80429,-22.04599 c 3.60926,8.94928 5.71238,18.87924 5.78324,29.39687 0.12471,18.50843 -6.10538,35.53389 -16.7704,48.84699 m 7.17043,-21.49082 c -3.55567,6.45319 -8.01264,12.48691 -13.17855,17.81415 -12.17011,12.55019 -28.30633,21.16932 -45.58452,22.34326 -1.46401,0.0995 -2.91238,0.14395 -4.34357,0.13481 m 25.92835,-6.69955 c -4.84784,0.98907 -9.9578,1.53063 -15.2792,1.56639 -9.79469,0.0658 -19.37448,-1.59249 -28.3365,-4.66936 -8.96202,-3.07687 -17.30863,-7.56943 -24.67009,-13.1394 -2.60325,-1.96972 -5.08348,-4.07405 -7.42497,-6.29762 m 4.11148,13.37992 c -2.35928,-1.84768 -4.58857,-3.87176 -6.66906,-6.05542 -5.94605,-6.24092 -10.6778,-13.78443 -13.75089,-22.24612 -3.07309,-8.46169 -4.4914,-17.84088 -3.76894,-27.7702 0.67501,-9.27728 3.16478,-18.21388 7.21983,-26.491 m -0.59106,20.5954 c -0.15219,-9.38359 1.60372,-18.03138 4.83078,-25.69049 3.22706,-7.65911 7.92807,-14.32611 13.69024,-19.70437 7.89541,-7.36936 17.79059,-12.32294 28.59281,-14.03306 m -22.20407,11.67371 c 11.51963,-7.78859 25.16799,-12.54619 39.73833,-12.98522 18.52032,-0.55806 35.11859,5.96009 47.38502,16.79403 m -42.26879,-17.2178 c 8.86973,-0.031 17.45841,1.89335 25.39193,5.3446 7.93353,3.45125 15.21387,8.43286 21.49118,14.55325 6.08598,5.93385 11.22935,12.93912 15.1197,20.66446 m -12.77658,-22.23226 c 9.24541,11.82199 15.00196,27.01762 15.11784,43.64816 0.063,9.04224 -1.54876,17.70333 -4.57502,25.66701 m 6.92816,-5.61965 c -2.8494,15.42772 -9.79734,29.13038 -19.65538,39.65811 -10.48277,11.1949 -24.23179,18.78116 -39.64648,21.04957 m 20.69737,-12.54877 c -9.44432,4.74926 -19.80152,7.55369 -30.43963,7.8682 -13.45267,0.39771 -25.47065,-3.23964 -34.94588,-9.69275 m 18.02243,10.71509 c -9.47204,-3.8862 -17.99868,-9.5033 -25.09404,-16.46037 -11.17835,-10.96049 -18.79495,-25.23826 -21.00197,-41.2258 m 5.23387,11.69049 c -2.56524,-7.89296 -4.07811,-16.22453 -4.25882,-24.76776 -0.34797,-16.45023 4.33414,-31.03315 12.55596,-42.33119 m -14.93629,18.75985 c 3.61184,-6.56728 8.28845,-12.68429 13.83787,-18.06491 6.48364,-6.28644 14.15748,-11.56826 22.71607,-15.40983 8.5586,-3.84158 17.99882,-6.24372 28.04677,-6.78187 0.80486,-0.0431 1.60754,-0.0739 2.40788,-0.0926 m -22.8275,-5.35883 c 5.38284,-1.23716 10.96828,-1.88279 16.68434,-1.8559 19.23919,0.0905 36.34112,7.79505 48.69506,20.31854 1.42344,1.44297 2.78364,2.94984 4.07651,4.5163 m -45.18612,-21.25284 c 17.32034,0.94743 33.03816,8.33281 44.1629,19.81595 10.07286,10.39737 16.41382,24.14737 16.69776,39.4287 m -2.74454,-33.33424 c 5.45782,9.98497 8.94349,21.77747 9.46109,34.39553 0.6727,16.39936 -3.80335,31.4853 -12.00132,43.09315 m 11.21995,-7.94179 c -3.50362,8.54448 -8.71996,16.27401 -15.21483,22.68241 -10.28947,10.15249 -23.79254,17.00154 -38.73963,18.51079 m 5.76612,-3.62295 c -7.87533,3.3464 -16.43119,5.15784 -25.43178,5.203 -9.83805,0.0494 -19.27823,-2.01072 -27.99214,-5.69005 -8.71391,-3.67932 -16.701,-8.98172 -23.63565,-15.44898 -0.57438,-0.53567 -1.14155,-1.07934 -1.70133,-1.63074 m 25.09602,9.19216 c -4.98691,-3.26779 -9.69938,-7.04911 -14.00324,-11.25845 -6.39587,-6.25541 -11.8881,-13.45667 -16.06459,-21.29999 -4.17649,-7.84332 -7.03566,-16.32854 -8.21018,-25.12916 -0.791,-5.92693 -0.76866,-11.61884 -0.0282,-16.98629 m -0.0319,22.30754 c -0.25483,-2.03988 -0.41467,-4.10516 -0.47636,-6.19295 -0.28937,-9.79453 1.60116,-19.15788 5.17817,-27.77169 3.57701,-8.61381 8.84485,-16.47708 15.35411,-23.26933 8.02785,-8.37687 17.9463,-15.11957 28.92237,-19.66414 m -26.77074,16.21104 c 12.42424,-9.42399 27.6198,-15.2676 43.89018,-15.36613 7.9868,-0.0484 15.58544,1.29258 22.60984,3.82259 m 50.3272,33.21375 -1.82101,72.24263 m -142.58391,-61.03743 50.58471,-51.03886 m -20.79846,137.93839 -33.25691,-63.30607 m -9.32231,-8.09149 27.03938,71.81771 M 455.48369,251.02768 382.35882,227.84749"
       id="path3755-5-7"
       inkscape:connector-curvature="0"
       inkscape:path-effect="#path-effect4380"
       inkscape:original-d="m 394.96875,235.75 c -43.73191,0 -79.1875,35.45559 -79.1875,79.1875 0,43.73192 35.45559,79.1875 79.1875,79.1875 43.73191,0 79.1875,-35.45558 79.1875,-79.1875 0,-43.73191 -35.45559,-79.1875 -79.1875,-79.1875 z M 394.5,245.4375 c 38.18036,0 69.125,30.94464 69.125,69.125 0,38.18036 -30.94464,69.125 -69.125,69.125 -38.18036,0 -69.125,-30.94464 -69.125,-69.125 0,-38.18036 30.94464,-69.125 69.125,-69.125 z" />
    <path
       style="fill:#2d65a0;fill-opacity:1;stroke:#6a2e9e;stroke-opacity:1"
       mask="url(#mask4219)"
       d="M 394.96875 231.09375 C 348.66373 231.09375 311.125 268.63248 311.125 314.9375 C 311.125 361.24253 348.66373 398.78125 394.96875 398.78125 C 441.27379 398.78125 478.8125 361.24253 478.8125 314.9375 C 478.8125 268.63248 441.27379 231.09375 394.96875 231.09375 z M 399.3125 262.75 C 409.65629 262.75 421.53125 266.11872 421.53125 278.53125 C 421.53125 282.34212 420.45726 287.5625 414.46875 287.5625 C 411.85559 287.5625 410.54868 286.60099 407.5 284.75 C 408.15329 284.75 412.1875 283.42404 412.1875 277 C 412.1875 269.92268 407.1589 266.875 400.84375 266.875 C 386.58023 266.875 379.625 282.33713 379.625 298.125 C 379.625 313.25958 386.0332 325.125 396.8125 325.125 C 406.39411 325.125 411.84869 315.65894 412.9375 299 L 423.5 299.09375 L 423.5 340.0625 C 423.5 356.93919 416.85136 367.15625 401.28125 367.15625 C 386.69108 367.15625 382.4375 358.12171 382.4375 350.5 C 382.4375 344.18484 385.40326 337.21875 395.09375 337.21875 C 400.86449 337.21875 405.09375 339.7263 405.09375 344.84375 C 405.09375 345.60592 404.99803 346.6773 404.5625 347.875 C 402.05822 345.15295 399.32072 344.84375 397.6875 344.84375 C 392.67893 344.84375 390.40625 347.98749 390.40625 352.125 C 390.40625 358.33125 395.40163 362.90625 401.28125 362.90625 C 406.28982 362.90625 411.625 359.63621 411.625 348.3125 L 411.625 322.40625 C 407.81413 329.3747 401.38588 332.75 393.4375 332.75 C 377.43187 332.75 366.4375 319.25105 366.4375 298.78125 C 366.4375 279.61805 376.12067 262.75 399.3125 262.75 z "
       id="path3755-4-0" />
    <rect
       style="fill:none;stroke:#9e2e2e;stroke-width:1.12707889;stroke-miterlimit:4;stroke-opacity:1;stroke-dasharray:none;stroke-dashoffset:0"
       id="rect4421"
       width="204.93388"
       height="204.93388"
       x="292.5018"
       y="212.47055"
       inkscape:export-filename="/home/sl/Code/Research/interpretation-experiment/prelogo.png"
       inkscape:export-xdpi="56.213264"
       inkscape:export-ydpi="56.213264" />
  </g>
</svg>
