<?xml version="1.0" encoding="UTF-8" standalone="no"?>
<!-- Created with Inkscape (http://www.inkscape.org/) -->

<svg
   xmlns:dc="http://purl.org/dc/elements/1.1/"
   xmlns:cc="http://creativecommons.org/ns#"
   xmlns:rdf="http://www.w3.org/1999/02/22-rdf-syntax-ns#"
   xmlns:svg="http://www.w3.org/2000/svg"
   xmlns="http://www.w3.org/2000/svg"
   xmlns:sodipodi="http://sodipodi.sourceforge.net/DTD/sodipodi-0.dtd"
   xmlns:inkscape="http://www.inkscape.org/namespaces/inkscape"
   width="744.09448819"
   height="1052.3622047"
   id="svg2"
   version="1.1"
   inkscape:version="0.48.5 r10040"
   sodipodi:docname="lda.svg">
  <defs
     id="defs4">
    <marker
       inkscape:stockid="Arrow2Lstart"
       orient="auto"
       refY="0.0"
       refX="0.0"
       id="Arrow2Lstart"
       style="overflow:visible">
      <path
         id="path3795"
         style="fill-rule:evenodd;stroke-width:0.62500000;stroke-linejoin:round"
         d="M 8.7185878,4.0337352 L -2.2072895,0.016013256 L 8.7185884,-4.0017078 C 6.9730900,-1.6296469 6.9831476,1.6157441 8.7185878,4.0337352 z "
         transform="scale(1.1) translate(1,0)" />
    </marker>
    <marker
       inkscape:stockid="Arrow1Mstart"
       orient="auto"
       refY="0.0"
       refX="0.0"
       id="Arrow1Mstart"
       style="overflow:visible">
      <path
         id="path3783"
         d="M 0.0,0.0 L 5.0,-5.0 L -12.5,0.0 L 5.0,5.0 L 0.0,0.0 z "
         style="fill-rule:evenodd;stroke:#000000;stroke-width:1.0pt"
         transform="scale(0.4) translate(10,0)" />
    </marker>
    <marker
       inkscape:stockid="Arrow1Lstart"
       orient="auto"
       refY="0.0"
       refX="0.0"
       id="Arrow1Lstart"
       style="overflow:visible">
      <path
         id="path3777"
         d="M 0.0,0.0 L 5.0,-5.0 L -12.5,0.0 L 5.0,5.0 L 0.0,0.0 z "
         style="fill-rule:evenodd;stroke:#000000;stroke-width:1.0pt"
         transform="scale(0.8) translate(12.5,0)" />
    </marker>
  </defs>
  <sodipodi:namedview
     id="base"
     pagecolor="#ffffff"
     bordercolor="#666666"
     borderopacity="1.0"
     inkscape:pageopacity="0.0"
     inkscape:pageshadow="2"
     inkscape:zoom="1.4"
     inkscape:cx="287.94512"
     inkscape:cy="636.89935"
     inkscape:document-units="px"
     inkscape:current-layer="layer2"
     showgrid="false"
     inkscape:window-width="1364"
     inkscape:window-height="729"
     inkscape:window-x="0"
     inkscape:window-y="18"
     inkscape:window-maximized="0" />
  <metadata
     id="metadata7">
    <rdf:RDF>
      <cc:Work
         rdf:about="">
        <dc:format>image/svg+xml</dc:format>
        <dc:type
           rdf:resource="http://purl.org/dc/dcmitype/StillImage" />
        <dc:title />
      </cc:Work>
    </rdf:RDF>
  </metadata>
  <g
     inkscape:label="Axes"
     inkscape:groupmode="layer"
     id="layer1">
    <path
       style="fill:none;stroke:#747474;stroke-width:1px;stroke-linecap:butt;stroke-linejoin:miter;stroke-opacity:1;marker-start:url(#Arrow2Lstart)"
       d="m 190,268.07647 0,288.57143"
       id="path2985"
       inkscape:connector-curvature="0" />
    <path
       style="fill:none;stroke:#747474;stroke-width:1px;stroke-linecap:butt;stroke-linejoin:miter;stroke-opacity:1;marker-start:url(#Arrow2Lstart)"
       d="M 478.57143,556.6479 190,556.6479"
       id="path2985-2"
       inkscape:connector-curvature="0" />
    <text
       xml:space="preserve"
       style="font-size:10px;font-style:normal;font-weight:normal;line-height:125%;letter-spacing:0px;word-spacing:0px;fill:#000000;fill-opacity:1;stroke:none;font-family:Sans"
       x="180.28571"
       y="566.07648"
       id="text5131"
       sodipodi:linespacing="125%"><tspan
         sodipodi:role="line"
         id="tspan5133"
         x="180.28571"
         y="566.07648">0</tspan></text>
  </g>
  <g
     inkscape:groupmode="layer"
     id="layer2"
     inkscape:label="Labels">
    <text
       xml:space="preserve"
       x="-460.94727"
       y="172.99976"
       id="text4778"
       transform="matrix(0,-1,1,0,0,0)"><tspan
         sodipodi:role="line"
         id="tspan4780"
         x="-460.94727"
         y="172.99976"
         style="font-size:10px">2<tspan
   style="font-size:65.00091553%;baseline-shift:super"
   id="tspan4792">nd</tspan> component</tspan></text>
    <text
       xml:space="preserve"
       style="font-size:10px;font-style:normal;font-weight:normal;line-height:125%;letter-spacing:0px;word-spacing:0px;fill:#000000;fill-opacity:1;stroke:none;font-family:Sans"
       x="286.67282"
       y="581.64789"
       id="text4784"
       sodipodi:linespacing="125%"><tspan
         sodipodi:role="line"
         id="tspan4786"
         x="286.67282"
         y="581.64789"
         style="font-size:10px">1<tspan
   style="font-size:65.00091553%;baseline-shift:super"
   id="tspan4790">st</tspan> component</tspan></text>
  </g>
  <g
     inkscape:groupmode="layer"
     id="layer3"
     inkscape:label="Points">
    <path
       sodipodi:type="arc"
       style="fill:#990000;fill-opacity:1;stroke:none"
       id="path4813"
       sodipodi:cx="218.57143"
       sodipodi:cy="365.21933"
       sodipodi:rx="5.7142859"
       sodipodi:ry="5.7142859"
       d="m 224.28571,365.21933 a 5.7142859,5.7142859 0 1 1 -11.42857,0 5.7142859,5.7142859 0 1 1 11.42857,0 z"
       transform="matrix(0.68750001,0,0,0.68750001,125.875,237.13103)" />
    <path
       sodipodi:type="arc"
       style="fill:#000899;fill-opacity:1;stroke:none"
       id="path4813-2"
       sodipodi:cx="218.57143"
       sodipodi:cy="365.21933"
       sodipodi:rx="5.7142859"
       sodipodi:ry="5.7142859"
       d="m 224.28571,365.21933 a 5.7142859,5.7142859 0 1 1 -11.42857,0 5.7142859,5.7142859 0 1 1 11.42857,0 z"
       transform="matrix(0.68750001,0,0,0.68750001,132.30357,224.98817)" />
    <path
       sodipodi:type="arc"
       style="fill:#000899;fill-opacity:1;stroke:none"
       id="path4813-2-7"
       sodipodi:cx="218.57143"
       sodipodi:cy="365.21933"
       sodipodi:rx="5.7142859"
       sodipodi:ry="5.7142859"
       d="m 224.28571,365.21933 a 5.7142859,5.7142859 0 1 1 -11.42857,0 5.7142859,5.7142859 0 1 1 11.42857,0 z"
       transform="matrix(0.68750001,0,0,0.68750001,146.58928,209.98817)" />
    <path
       sodipodi:type="arc"
       style="fill:#000899;fill-opacity:1;stroke:none"
       id="path4813-2-0"
       sodipodi:cx="218.57143"
       sodipodi:cy="365.21933"
       sodipodi:rx="5.7142859"
       sodipodi:ry="5.7142859"
       d="m 224.28571,365.21933 a 5.7142859,5.7142859 0 1 1 -11.42857,0 5.7142859,5.7142859 0 1 1 11.42857,0 z"
       transform="matrix(0.68750001,0,0,0.68750001,150.16071,179.27389)" />
    <path
       sodipodi:type="arc"
       style="fill:#000899;fill-opacity:1;stroke:none"
       id="path4813-2-8"
       sodipodi:cx="218.57143"
       sodipodi:cy="365.21933"
       sodipodi:rx="5.7142859"
       sodipodi:ry="5.7142859"
       d="m 224.28571,365.21933 a 5.7142859,5.7142859 0 1 1 -11.42857,0 5.7142859,5.7142859 0 1 1 11.42857,0 z"
       transform="matrix(0.68750001,0,0,0.68750001,116.58929,178.5596)" />
    <path
       sodipodi:type="arc"
       style="fill:#000899;fill-opacity:1;stroke:none"
       id="path4813-2-5"
       sodipodi:cx="218.57143"
       sodipodi:cy="365.21933"
       sodipodi:rx="5.7142859"
       sodipodi:ry="5.7142859"
       d="m 224.28571,365.21933 a 5.7142859,5.7142859 0 1 1 -11.42857,0 5.7142859,5.7142859 0 1 1 11.42857,0 z"
       transform="matrix(0.68750001,0,0,0.68750001,161.58929,126.41674)" />
    <path
       sodipodi:type="arc"
       style="fill:#000899;fill-opacity:1;stroke:none"
       id="path4813-2-5-9"
       sodipodi:cx="218.57143"
       sodipodi:cy="365.21933"
       sodipodi:rx="5.7142859"
       sodipodi:ry="5.7142859"
       d="m 224.28571,365.21933 a 5.7142859,5.7142859 0 1 1 -11.42857,0 5.7142859,5.7142859 0 1 1 11.42857,0 z"
       transform="matrix(0.68750001,0,0,0.68750001,153.73214,235.70246)" />
    <path
       sodipodi:type="arc"
       style="fill:#000899;fill-opacity:1;stroke:none"
       id="path4813-2-5-3"
       sodipodi:cx="218.57143"
       sodipodi:cy="365.21933"
       sodipodi:rx="5.7142859"
       sodipodi:ry="5.7142859"
       d="m 224.28571,365.21933 a 5.7142859,5.7142859 0 1 1 -11.42857,0 5.7142859,5.7142859 0 1 1 11.42857,0 z"
       transform="matrix(0.68750001,0,0,0.68750001,168.01785,215.70246)" />
    <path
       sodipodi:type="arc"
       style="fill:#000899;fill-opacity:1;stroke:none"
       id="path4813-2-5-39"
       sodipodi:cx="218.57143"
       sodipodi:cy="365.21933"
       sodipodi:rx="5.7142859"
       sodipodi:ry="5.7142859"
       d="m 224.28571,365.21933 a 5.7142859,5.7142859 0 1 1 -11.42857,0 5.7142859,5.7142859 0 1 1 11.42857,0 z"
       transform="matrix(0.68750001,0,0,0.68750001,192.30358,227.13103)" />
    <path
       sodipodi:type="arc"
       style="fill:#000899;fill-opacity:1;stroke:none"
       id="path4813-2-5-8"
       sodipodi:cx="218.57143"
       sodipodi:cy="365.21933"
       sodipodi:rx="5.7142859"
       sodipodi:ry="5.7142859"
       d="m 224.28571,365.21933 a 5.7142859,5.7142859 0 1 1 -11.42857,0 5.7142859,5.7142859 0 1 1 11.42857,0 z"
       transform="matrix(0.68750001,0,0,0.68750001,169.44643,181.41674)" />
    <path
       sodipodi:type="arc"
       style="fill:#000899;fill-opacity:1;stroke:none"
       id="path4813-2-5-6"
       sodipodi:cx="218.57143"
       sodipodi:cy="365.21933"
       sodipodi:rx="5.7142859"
       sodipodi:ry="5.7142859"
       d="m 224.28571,365.21933 a 5.7142859,5.7142859 0 1 1 -11.42857,0 5.7142859,5.7142859 0 1 1 11.42857,0 z"
       transform="matrix(0.68750001,0,0,0.68750001,173.44643,148.70246)" />
    <path
       sodipodi:type="arc"
       style="fill:#000899;fill-opacity:1;stroke:none"
       id="path4813-2-5-1"
       sodipodi:cx="218.57143"
       sodipodi:cy="365.21933"
       sodipodi:rx="5.7142859"
       sodipodi:ry="5.7142859"
       d="m 224.28571,365.21933 a 5.7142859,5.7142859 0 1 1 -11.42857,0 5.7142859,5.7142859 0 1 1 11.42857,0 z"
       transform="matrix(0.68750001,0,0,0.68750001,115.16071,249.98817)" />
    <path
       sodipodi:type="arc"
       style="fill:#000899;fill-opacity:1;stroke:none"
       id="path4813-2-5-0"
       sodipodi:cx="218.57143"
       sodipodi:cy="365.21933"
       sodipodi:rx="5.7142859"
       sodipodi:ry="5.7142859"
       d="m 224.28571,365.21933 a 5.7142859,5.7142859 0 1 1 -11.42857,0 5.7142859,5.7142859 0 1 1 11.42857,0 z"
       transform="matrix(0.68750001,0,0,0.68750001,112.30357,210.70246)" />
    <path
       sodipodi:type="arc"
       style="fill:#000899;fill-opacity:1;stroke:none"
       id="path4813-2-8-6"
       sodipodi:cx="218.57143"
       sodipodi:cy="365.21933"
       sodipodi:rx="5.7142859"
       sodipodi:ry="5.7142859"
       d="m 224.28571,365.21933 a 5.7142859,5.7142859 0 1 1 -11.42857,0 5.7142859,5.7142859 0 1 1 11.42857,0 z"
       transform="matrix(0.68750001,0,0,0.68750001,124.44643,148.5596)" />
    <path
       style="fill:none;stroke:#929292;stroke-width:1px;stroke-linecap:butt;stroke-linejoin:miter;stroke-opacity:1"
       d="m 273.62778,491.23741 -5.68414,6.82097"
       id="path4994"
       inkscape:connector-type="polyline"
       inkscape:connector-curvature="0"
       inkscape:connection-start="#path4813"
       inkscape:connection-start-point="d4"
       inkscape:connection-end="#path4813-2-5-1"
       inkscape:connection-end-point="d4" />
    <path
       style="fill:none;stroke:#929292;stroke-width:1px;stroke-linecap:butt;stroke-linejoin:miter;stroke-opacity:1"
       d="M 265.14359,497.15807 262.8564,465.70915"
       id="path4996"
       inkscape:connector-type="polyline"
       inkscape:connector-curvature="0"
       inkscape:connection-start="#path4813-2-5-1"
       inkscape:connection-start-point="d4"
       inkscape:connection-end="#path4813-2-5-0"
       inkscape:connection-end-point="d4" />
    <path
       style="fill:none;stroke:#929292;stroke-width:1px;stroke-linecap:butt;stroke-linejoin:miter;stroke-opacity:1"
       d="m 263.0907,457.8962 3.24717,-24.35375"
       id="path4998"
       inkscape:connector-type="polyline"
       inkscape:connector-curvature="0"
       inkscape:connection-start="#path4813-2-5-0"
       inkscape:connection-start-point="d4"
       inkscape:connection-end="#path4813-2-8"
       inkscape:connection-end-point="d4" />
    <path
       style="fill:none;stroke:#929292;stroke-width:1px;stroke-linecap:butt;stroke-linejoin:miter;stroke-opacity:1"
       d="m 267.85273,425.84657 5.86597,-22.39736"
       id="path5000"
       inkscape:connector-type="polyline"
       inkscape:connector-curvature="0"
       inkscape:connection-start="#path4813-2-8"
       inkscape:connection-start-point="d4"
       inkscape:connection-end="#path4813-2-8-6"
       inkscape:connection-end-point="d4" />
    <path
       style="fill:none;stroke:#929292;stroke-width:1px;stroke-linecap:butt;stroke-linejoin:miter;stroke-opacity:1"
       d="m 277.98135,484.74661 2.75158,-5.19743"
       id="path5002"
       inkscape:connector-type="polyline"
       inkscape:connector-curvature="0"
       inkscape:connection-start="#path4813"
       inkscape:connection-start-point="d4"
       inkscape:connection-end="#path4813-2"
       inkscape:connection-end-point="d4" />
    <path
       style="fill:none;stroke:#929292;stroke-width:1px;stroke-linecap:butt;stroke-linejoin:miter;stroke-opacity:1"
       d="m 285.28079,473.23163 8.86698,-9.31033"
       id="path5004"
       inkscape:connector-type="polyline"
       inkscape:connector-curvature="0"
       inkscape:connection-start="#path4813-2"
       inkscape:connection-start-point="d4"
       inkscape:connection-end="#path4813-2-7"
       inkscape:connection-end-point="d4" />
    <path
       style="fill:none;stroke:#929292;stroke-width:1px;stroke-linecap:butt;stroke-linejoin:miter;stroke-opacity:1"
       d="m 297.31093,457.17382 2.66384,-22.90899"
       id="path5006"
       inkscape:connector-type="polyline"
       inkscape:connector-curvature="0"
       inkscape:connection-start="#path4813-2-7"
       inkscape:connection-start-point="d4"
       inkscape:connection-end="#path4813-2-0"
       inkscape:connection-end-point="d4" />
    <path
       style="fill:none;stroke:#929292;stroke-width:1px;stroke-linecap:butt;stroke-linejoin:miter;stroke-opacity:1"
       d="m 301.25898,426.52154 9.76776,-45.17587"
       id="path5008"
       inkscape:connector-type="polyline"
       inkscape:connector-curvature="0"
       inkscape:connection-start="#path4813-2-0"
       inkscape:connection-start-point="d4"
       inkscape:connection-end="#path4813-2-5"
       inkscape:connection-end-point="d4" />
    <path
       style="fill:none;stroke:#929292;stroke-width:1px;stroke-linecap:butt;stroke-linejoin:miter;stroke-opacity:1"
       d="m 280.06637,488.01812 20.01012,-1.02616"
       id="path5010"
       inkscape:connector-type="polyline"
       inkscape:connector-curvature="0"
       inkscape:connection-start="#path4813"
       inkscape:connection-start-point="d4"
       inkscape:connection-end="#path4813-2-5-9"
       inkscape:connection-end-point="d4" />
    <path
       style="fill:none;stroke:#929292;stroke-width:1px;stroke-linecap:butt;stroke-linejoin:miter;stroke-opacity:1"
       d="m 306.28361,483.5937 9.71849,-13.60589"
       id="path5012"
       inkscape:connector-type="polyline"
       inkscape:connector-curvature="0"
       inkscape:connection-start="#path4813-2-5-9"
       inkscape:connection-start-point="d4"
       inkscape:connection-end="#path4813-2-5-3"
       inkscape:connection-end-point="d4" />
    <path
       style="fill:none;stroke:#929292;stroke-width:1px;stroke-linecap:butt;stroke-linejoin:miter;stroke-opacity:1"
       d="m 321.84119,468.46392 17.17476,8.08223"
       id="path5014"
       inkscape:connector-type="polyline"
       inkscape:connector-curvature="0"
       inkscape:connection-start="#path4813-2-5-3"
       inkscape:connection-start-point="d4"
       inkscape:connection-end="#path4813-2-5-39"
       inkscape:connection-end-point="d4" />
    <path
       style="fill:none;stroke:#929292;stroke-width:1px;stroke-linecap:butt;stroke-linejoin:miter;stroke-opacity:1"
       d="M 340.81414,474.70473 321.47158,436.01962"
       id="path5016"
       inkscape:connector-type="polyline"
       inkscape:connector-curvature="0"
       inkscape:connection-start="#path4813-2-5-39"
       inkscape:connection-start-point="d4"
       inkscape:connection-end="#path4813-2-5-8"
       inkscape:connection-end-point="d4" />
    <path
       style="fill:none;stroke:#929292;stroke-width:1px;stroke-linecap:butt;stroke-linejoin:miter;stroke-opacity:1"
       d="m 320.19113,428.60511 3.04631,-24.91443"
       id="path5018"
       inkscape:connector-type="polyline"
       inkscape:connector-curvature="0"
       inkscape:connection-end-point="d4"
       inkscape:connection-end="#path4813-2-5-6"
       inkscape:connection-start-point="d4"
       inkscape:connection-start="#path4813-2-5-8" />
    <path
       sodipodi:type="arc"
       style="fill:#000899;fill-opacity:1;stroke:none"
       id="path4813-2-8-6-7"
       sodipodi:cx="218.57143"
       sodipodi:cy="365.21933"
       sodipodi:rx="5.7142859"
       sodipodi:ry="5.7142859"
       d="m 224.28571,365.21933 a 5.7142859,5.7142859 0 1 1 -11.42857,0 5.7142859,5.7142859 0 1 1 11.42857,0 z"
       transform="matrix(0.68750001,0,0,0.68750001,133.01786,119.27389)" />
    <path
       sodipodi:type="arc"
       style="fill:#000899;fill-opacity:1;stroke:none"
       id="path4813-2-8-6-5"
       sodipodi:cx="218.57143"
       sodipodi:cy="365.21933"
       sodipodi:rx="5.7142859"
       sodipodi:ry="5.7142859"
       d="m 224.28571,365.21933 a 5.7142859,5.7142859 0 1 1 -11.42857,0 5.7142859,5.7142859 0 1 1 11.42857,0 z"
       transform="matrix(0.68750001,0,0,0.68750001,150.16071,100.70246)" />
    <path
       sodipodi:type="arc"
       style="fill:#000899;fill-opacity:1;stroke:none"
       id="path4813-2-8-6-58"
       sodipodi:cx="218.57143"
       sodipodi:cy="365.21933"
       sodipodi:rx="5.7142859"
       sodipodi:ry="5.7142859"
       d="m 224.28571,365.21933 a 5.7142859,5.7142859 0 1 1 -11.42857,0 5.7142859,5.7142859 0 1 1 11.42857,0 z"
       transform="matrix(0.68750001,0,0,0.68750001,182.30357,85.70246)" />
    <path
       sodipodi:type="arc"
       style="fill:#000899;fill-opacity:1;stroke:none"
       id="path4813-2-8-6-0"
       sodipodi:cx="218.57143"
       sodipodi:cy="365.21933"
       sodipodi:rx="5.7142859"
       sodipodi:ry="5.7142859"
       d="m 224.28571,365.21933 a 5.7142859,5.7142859 0 1 1 -11.42857,0 5.7142859,5.7142859 0 1 1 11.42857,0 z"
       transform="matrix(0.68750001,0,0,0.68750001,177.30357,117.84532)" />
    <path
       sodipodi:type="arc"
       style="fill:#000899;fill-opacity:1;stroke:none"
       id="path4813-2-8-6-3"
       sodipodi:cx="218.57143"
       sodipodi:cy="365.21933"
       sodipodi:rx="5.7142859"
       sodipodi:ry="5.7142859"
       d="m 224.28571,365.21933 a 5.7142859,5.7142859 0 1 1 -11.42857,0 5.7142859,5.7142859 0 1 1 11.42857,0 z"
       transform="matrix(0.68750001,0,0,0.68750001,198.01786,86.41675)" />
    <path
       sodipodi:type="arc"
       style="fill:#000899;fill-opacity:1;stroke:none"
       id="path4813-2-8-6-53"
       sodipodi:cx="218.57143"
       sodipodi:cy="365.21933"
       sodipodi:rx="5.7142859"
       sodipodi:ry="5.7142859"
       d="m 224.28571,365.21933 a 5.7142859,5.7142859 0 1 1 -11.42857,0 5.7142859,5.7142859 0 1 1 11.42857,0 z"
       transform="matrix(0.68750001,0,0,0.68750001,230.875,97.84532)" />
    <path
       sodipodi:type="arc"
       style="fill:#000899;fill-opacity:1;stroke:none"
       id="path4813-2-8-6-57"
       sodipodi:cx="218.57143"
       sodipodi:cy="365.21933"
       sodipodi:rx="5.7142859"
       sodipodi:ry="5.7142859"
       d="m 224.28571,365.21933 a 5.7142859,5.7142859 0 1 1 -11.42857,0 5.7142859,5.7142859 0 1 1 11.42857,0 z"
       transform="matrix(0.68750001,0,0,0.68750001,185.875,137.84532)" />
    <path
       sodipodi:type="arc"
       style="fill:#000899;fill-opacity:1;stroke:none"
       id="path4813-2-8-6-75"
       sodipodi:cx="218.57143"
       sodipodi:cy="365.21933"
       sodipodi:rx="5.7142859"
       sodipodi:ry="5.7142859"
       d="m 224.28571,365.21933 a 5.7142859,5.7142859 0 1 1 -11.42857,0 5.7142859,5.7142859 0 1 1 11.42857,0 z"
       transform="matrix(0.68750001,0,0,0.68750001,228.01786,150.70246)" />
    <path
       sodipodi:type="arc"
       style="fill:#000899;fill-opacity:1;stroke:none"
       id="path4813-2-8-6-01"
       sodipodi:cx="218.57143"
       sodipodi:cy="365.21933"
       sodipodi:rx="5.7142859"
       sodipodi:ry="5.7142859"
       d="m 224.28571,365.21933 a 5.7142859,5.7142859 0 1 1 -11.42857,0 5.7142859,5.7142859 0 1 1 11.42857,0 z"
       transform="matrix(0.68750001,0,0,0.68750001,258.73214,124.98817)" />
    <path
       style="fill:none;stroke:#929292;stroke-width:1px;stroke-linecap:butt;stroke-linejoin:miter;stroke-opacity:1"
       d="m 275.81811,395.87651 6.36379,-21.74295"
       id="path5094"
       inkscape:connector-type="polyline"
       inkscape:connector-curvature="0"
       inkscape:connection-start="#path4813-2-8-6"
       inkscape:connection-start-point="d4"
       inkscape:connection-end="#path4813-2-8-6-7"
       inkscape:connection-end-point="d4" />
    <path
       style="fill:none;stroke:#929292;stroke-width:1px;stroke-linecap:butt;stroke-linejoin:miter;stroke-opacity:1"
       d="M 285.9504,367.47544 297.76388,354.6775"
       id="path5096"
       inkscape:connector-type="polyline"
       inkscape:connector-curvature="0"
       inkscape:connection-start="#path4813-2-8-6-7"
       inkscape:connection-start-point="d4"
       inkscape:connection-end="#path4813-2-8-6-5"
       inkscape:connection-end-point="d4" />
    <path
       style="fill:none;stroke:#929292;stroke-width:1px;stroke-linecap:butt;stroke-linejoin:miter;stroke-opacity:1"
       d="m 303.98942,350.12902 25.02115,-11.67654"
       id="path5098"
       inkscape:connector-type="polyline"
       inkscape:connector-curvature="0"
       inkscape:connection-start="#path4813-2-8-6-5"
       inkscape:connection-start-point="d4"
       inkscape:connection-end="#path4813-2-8-6-58"
       inkscape:connection-end-point="d4" />
    <path
       style="fill:none;stroke:#929292;stroke-width:1px;stroke-linecap:butt;stroke-linejoin:miter;stroke-opacity:1"
       d="m 336.49602,336.96914 7.8651,0.35751"
       id="path5100"
       inkscape:connector-type="polyline"
       inkscape:connector-curvature="0"
       inkscape:connection-start="#path4813-2-8-6-58"
       inkscape:connection-start-point="d4"
       inkscape:connection-end="#path4813-2-8-6-3"
       inkscape:connection-end-point="d4" />
    <path
       style="fill:none;stroke:#929292;stroke-width:1px;stroke-linecap:butt;stroke-linejoin:miter;stroke-opacity:1"
       d="m 315.30667,375.62347 8.81523,-4.8083"
       id="path5102"
       inkscape:connector-type="polyline"
       inkscape:connector-curvature="0"
       inkscape:connection-start="#path4813-2-5"
       inkscape:connection-start-point="d4"
       inkscape:connection-end="#path4813-2-8-6-0"
       inkscape:connection-end-point="d4" />
    <path
       style="fill:none;stroke:#929292;stroke-width:1px;stroke-linecap:butt;stroke-linejoin:miter;stroke-opacity:1"
       d="m 331.25288,367.55921 46.20853,-17.25119"
       id="path5104"
       inkscape:connector-type="polyline"
       inkscape:connector-curvature="0"
       inkscape:connection-start="#path4813-2-8-6-0"
       inkscape:connection-start-point="d4"
       inkscape:connection-end="#path4813-2-8-6-53"
       inkscape:connection-end-point="d4" />
    <path
       style="fill:none;stroke:#929292;stroke-width:1px;stroke-linecap:butt;stroke-linejoin:miter;stroke-opacity:1"
       d="m 326.67299,397.20614 6.51117,-5.68792"
       id="path5106"
       inkscape:connector-type="polyline"
       inkscape:connector-curvature="0"
       inkscape:connection-start="#path4813-2-5-6"
       inkscape:connection-start-point="d4"
       inkscape:connection-end="#path4813-2-8-6-57"
       inkscape:connection-end-point="d4" />
    <path
       style="fill:none;stroke:#929292;stroke-width:1px;stroke-linecap:butt;stroke-linejoin:miter;stroke-opacity:1"
       d="m 339.90144,390.0803 34.62569,10.56377"
       id="path5108"
       inkscape:connector-type="polyline"
       inkscape:connector-curvature="0"
       inkscape:connection-start="#path4813-2-8-6-57"
       inkscape:connection-start-point="d4"
       inkscape:connection-end="#path4813-2-8-6-75"
       inkscape:connection-end-point="d4" />
    <path
       style="fill:none;stroke:#929292;stroke-width:1px;stroke-linecap:butt;stroke-linejoin:miter;stroke-opacity:1"
       d="m 381.29805,399.2688 24.68961,-20.67038"
       id="path5110"
       inkscape:connector-type="polyline"
       inkscape:connector-curvature="0"
       inkscape:connection-start="#path4813-2-8-6-75"
       inkscape:connection-start-point="d4"
       inkscape:connection-end="#path4813-2-8-6-01"
       inkscape:connection-end-point="d4" />
  </g>
</svg>
